# xmcd CD database file generated by Grip 2.91
# 
# Track frame offsets:
#       150
#       12252
#       34807
#       57445
#       83970
#       128457
#       143657
#       155937
#       182305
#       202247
# 
# Disc length: 3118 seconds
# 
# Revision: 3
# Processed by: cddbd v1.4b41PL1 Copyright (c) Steve Scherf et al.
# Submitted via: Grip 2.91
# 
DISCID=850c2c0a
DTITLE=Sonny Terry and Brownie McGhee - Live At The New Penelope Cafe
DYEAR=1900
DGENRE=
TTITLE0=Hooray Hooray (These Women Is Killing Me)
TTITLE1=Cornbread, Peas And Black Molasses
TTITLE2=Sportin Life
TTITLE3=Come On If You're Coming
TTITLE4=Blues Medley
TTITLE5=Easy Rider
TTITLE6=Pack It Up And Go
TTITLE7=Hootin The Blues
TTITLE8=Under Your Hood
TTITLE9=Walking My Blues Away
EXTD=
EXTT0=
EXTT1=
EXTT2=
EXTT3=
EXTT4=
EXTT5=
EXTT6=
EXTT7=
EXTT8=
EXTT9=
PLAYORDER=
